<?xml version="1.0" standalone="no"?>
<!DOCTYPE svg PUBLIC "-//W3C//DTD SVG 20010904//EN"
 "http://www.w3.org/TR/2001/REC-SVG-20010904/DTD/svg10.dtd">
<svg version="1.0" xmlns="http://www.w3.org/2000/svg"
 width="200.000000pt" height="200.000000pt" viewBox="0 0 200.000000 200.000000"
 preserveAspectRatio="xMidYMid meet">
<metadata>
Created by potrace 1.11, written by Peter Selinger 2001-2013
</metadata>
<g transform="translate(0.000000,200.000000) scale(0.100000,-0.100000)"
fill="#000000" stroke="none">
<path d="M850 1969 c-100 -12 -186 -38 -286 -85 -250 -118 -433 -327 -520
-594 -32 -101 -34 -113 -39 -265 -9 -322 106 -575 365 -799 29 -24 109 -76
118 -76 6 0 12 -4 14 -8 4 -10 87 -49 158 -74 63 -22 79 -26 135 -34 22 -3 58
-9 80 -13 44 -8 182 -7 230 2 17 3 49 9 72 12 52 7 178 50 209 70 13 8 28 15
33 15 14 0 115 65 171 109 103 82 195 195 264 324 20 37 36 68 35 70 0 1 2 9
5 17 34 102 37 113 56 225 9 52 6 248 -5 300 -6 29 -28 119 -41 161 -5 18 2
25 45 44 l50 23 -27 50 c-42 78 -79 134 -115 174 -20 22 -20 22 -45 3 -13 -11
-32 -20 -40 -20 -8 0 -47 33 -86 73 -39 39 -82 81 -96 92 -107 86 -274 166
-399 190 -13 2 -30 7 -40 10 -29 9 -234 12 -301 4z m942 -1261 c-8 -8 -9 -4
-5 13 4 13 8 18 11 10 2 -7 -1 -18 -6 -23z m-72 -162 c0 -3 -4 -8 -10 -11 -5
-3 -10 -1 -10 4 0 6 5 11 10 11 6 0 10 -2 10 -4z m-40 -59 c0 -2 -10 -12 -21
-23 -22 -19 -22 -19 -8 4 12 19 29 30 29 19z m-40 -50 c0 -2 -19 -21 -42 -42
l-43 -40 40 43 c36 39 45 47 45 39z m-99 -100 c-10 -9 -11 -8 -5 6 3 10 9 15
12 12 3 -3 0 -11 -7 -18z m-31 -23 c-8 -8 -23 -20 -34 -25 -13 -7 -9 -1 9 15
34 29 43 33 25 10z m-65 -44 c-3 -5 -16 -15 -28 -21 -19 -9 -19 -8 3 10 28 23
34 26 25 11z m-85 -50 c0 -5 -5 -10 -11 -10 -5 0 -7 5 -4 10 3 6 8 10 11 10 2
0 4 -4 4 -10z m-70 -30 c-8 -5 -19 -10 -25 -10 -5 0 -3 5 5 10 8 5 20 10 25
10 6 0 3 -5 -5 -10z m-50 -20 c-8 -5 -19 -10 -25 -10 -5 0 -3 5 5 10 8 5 20
10 25 10 6 0 3 -5 -5 -10z m-273 -36 c-3 -3 -12 -4 -19 -1 -8 3 -5 6 6 6 11 1
17 -2 13 -5z m86 -1 c-7 -2 -19 -2 -25 0 -7 3 -2 5 12 5 14 0 19 -2 13 -5z"/>
</g>
</svg>
